HIERARCHY
ROOT hip
{
	OFFSET 0.000000 0.000000 0.000000 
	CHANNELS 6 Xposition Yposition Zposition Xrotation Zrotation Yrotation
	JOINT abdomen
	{
		OFFSET 0.000000 3.402643 0.000000 
		CHANNELS 3 Xrotation Zrotation Yrotation
		JOINT chest
		{
			OFFSET 0.000000 8.438565 -0.680529 
			CHANNELS 3 Xrotation Zrotation Yrotation
			JOINT neck
			{
				OFFSET 0.000000 10.207942 -0.272212 
				CHANNELS 3 Xrotation Zrotation Yrotation
				JOINT head
				{
					OFFSET 0.000000 3.130431 0.000000 
					CHANNELS 3 Xrotation Zrotation Yrotation
					End Site
					{
						OFFSET 0.000000 3.130435 0.000000 
					}
				}
			}
			JOINT lCollar
			{
				OFFSET 3.470700 6.669187 -0.816635 
				CHANNELS 3 Yrotation Zrotation Xrotation
				JOINT lShldr
				{
					OFFSET 3.198488 0.000000 0.000000 
					CHANNELS 3 Zrotation Yrotation Xrotation
					JOINT lForeArm
					{
						OFFSET 10.139888 0.000000 0.000000 
						CHANNELS 3 Yrotation Zrotation Xrotation
						JOINT lHand
						{
							OFFSET 8.370511 0.000000 0.000000 
							CHANNELS 3 Zrotation Yrotation Xrotation
							End Site
							{
								OFFSET 4.083176 0.000000 0.000000 
							}
						}
					}
				}
			}
			JOINT rCollar
			{
				OFFSET -3.470700 6.669187 -0.816635 
				CHANNELS 3 Yrotation Zrotation Xrotation
				JOINT rShldr
				{
					OFFSET -3.198488 0.000000 0.000000 
					CHANNELS 3 Zrotation Yrotation Xrotation
					JOINT rForeArm
					{
						OFFSET -10.139888 0.000000 0.000000 
						CHANNELS 3 Yrotation Zrotation Xrotation
						JOINT rHand
						{
							OFFSET -8.370511 0.000000 0.000000 
							CHANNELS 3 Zrotation Yrotation Xrotation
							End Site
							{
								OFFSET -4.083176 0.000000 0.000000 
							}
						}
					}
				}
			}
		}
	}
	JOINT lThigh
	{
		OFFSET 5.308129 -1.633274 1.361059 
		CHANNELS 3 Xrotation Zrotation Yrotation
		JOINT lShin
		{
			OFFSET -2.041588 -20.007561 0.000000 
			CHANNELS 3 Xrotation Zrotation Yrotation
			JOINT lFoot
			{
				OFFSET 0.000000 -19.190928 -1.224953 
				CHANNELS 3 Xrotation Yrotation Zrotation
				End Site
				{
					OFFSET 0.000000 -2.449906 4.627600 
				}
			}
		}
	}
	JOINT rThigh
	{
		OFFSET -5.308129 -1.633274 1.361059 
		CHANNELS 3 Xrotation Zrotation Yrotation
		JOINT rShin
		{
			OFFSET 2.041588 -20.007561 0.000000 
			CHANNELS 3 Xrotation Zrotation Yrotation
			JOINT rFoot
			{
				OFFSET 0.000000 -19.190928 -1.224953 
				CHANNELS 3 Xrotation Yrotation Zrotation
				End Site
				{
					OFFSET 0.000000 -2.449906 4.627600 
				}
			}
		}
	}
}
MOTION
Frames: 6
Frame Time: 0.016667
0.047118 39.771484 -1.820835 6.463340 2.891690 -3.871690 -13.446900 -0.361222 0.554601 14.970100 0.855294 -0.112944 14.964500 7.966710 -13.826200 15.255000 6.951570 -6.353120 2.000000 -2.000000 0.000000 -78.795197 -17.537100 -158.154999 59.121601 -0.285015 0.117391 0.073853 -0.076572 -165.427994 -2.000000 2.000000 0.000000 -91.935699 161.042007 2.742910 -62.471199 0.278039 0.121244 179.904007 179.891998 0.754128 -31.543941 7.578451 10.745031 55.243904 1.323405 3.798393 -22.678511 3.177785 2.344819 -30.155193 -14.828264 1.610793 46.212891 -2.439985 -3.132771 -12.488658 -4.954325 -2.581082 
0.085362 39.753208 -1.798031 6.179840 2.902980 -4.119310 -12.704700 -0.466068 0.630589 16.142300 0.623146 -0.096929 13.474700 10.208900 -14.002000 14.997500 7.965540 -6.240400 2.000000 -2.000000 0.000000 -78.697899 -18.571199 -157.712997 59.121601 -0.285015 0.117391 0.072746 -0.074497 -164.587997 -2.000000 2.000000 0.000000 -91.739502 160.085007 2.745220 -62.461498 0.278060 0.121233 179.903000 179.882004 0.558838 -31.162533 7.590240 10.935720 55.430161 1.319626 3.809829 -22.953339 3.132734 2.315986 -29.875872 -14.844003 1.734921 46.152473 -2.455414 -3.110970 -13.617296 -4.998550 -2.688460 
0.131452 39.743683 -1.764048 6.159860 2.825420 -4.441170 -12.665300 -0.423110 0.689879 16.279100 0.594044 -0.063961 13.059300 11.795900 -13.989100 15.059600 8.702450 -6.137330 2.000000 -2.000000 0.000000 -78.990700 -18.551300 -157.507996 59.189999 -0.284875 0.117475 0.071533 -0.072138 -163.639999 -2.000000 2.000000 0.000000 -91.749397 160.240997 2.871800 -62.646999 0.277667 0.121437 179.903000 179.891006 0.256083 -31.071995 7.701020 11.077876 55.371563 1.322929 3.813294 -22.993637 3.180492 2.370311 -29.970911 -14.692297 1.953395 46.133366 -2.453969 -3.120633 -14.668469 -5.025940 -2.795280 
0.151273 39.746647 -1.770463 6.130530 2.825570 -4.540270 -12.636000 -0.423182 0.689557 16.327900 0.594082 -0.063454 12.849200 12.014000 -14.110600 15.022800 8.789960 -6.165730 2.000000 -2.000000 0.000000 -79.322701 -18.590099 -157.429993 59.268101 -0.284715 0.117570 0.070876 -0.070816 -163.113007 -2.000000 2.000000 0.000000 -91.720200 160.270996 3.037740 -62.656799 0.277646 0.121448 179.901993 179.889999 -0.290808 -31.080475 7.707682 11.076282 55.527664 1.326684 3.809829 -23.151390 3.320328 2.419864 -29.988222 -14.654557 2.051816 46.113602 -2.459342 -3.123222 -16.299522 -5.106957 -2.988577 
0.160838 39.734547 -1.782865 6.111030 2.835380 -4.628090 -12.636100 -0.420511 0.669134 16.278999 0.642736 -0.077368 12.642500 12.288900 -14.228900 14.986700 8.896660 -6.190590 2.000000 -2.000000 0.000000 -79.713402 -18.541700 -157.606003 59.414600 -0.284414 0.117749 0.070888 -0.070840 -163.123001 -2.000000 2.000000 0.000000 -91.720299 160.369003 3.291410 -62.666500 0.277625 0.121458 179.901001 179.889008 -0.896275 -31.058977 7.710021 11.085060 55.587112 1.318261 3.823006 -23.209356 3.391475 2.456120 -30.027704 -14.618374 2.163399 46.152107 -2.464192 -3.114386 -17.957657 -5.208722 -3.166554 
0.168463 39.717426 -1.788796 6.072330 2.913280 -4.778010 -12.645900 -0.421245 0.639670 16.259399 0.759578 -0.096132 12.511200 12.380900 -14.296500 14.938600 8.936570 -6.220130 2.000000 -2.000000 0.000000 -80.143600 -18.474400 -158.104004 59.531799 -0.284173 0.117891 0.071300 -0.071673 -163.455002 -2.000000 2.000000 0.000000 -91.769302 160.487000 3.379020 -62.695801 0.277563 0.121490 179.901001 179.889008 -0.925571 -30.997414 7.677040 11.207341 55.616909 1.308079 3.826849 -23.301662 3.367839 2.456689 -30.107862 -14.633419 2.377909 46.221653 -2.445843 -3.115540 -17.977909 -5.178682 -3.150524 
